SplineFontDB: 3.0
FontName: JonesGaramond
FullName: Jones Garamond
FamilyName: Jones Garamond
Weight: Regular
Copyright: Created by trashman with FontForge 2.0 (http://fontforge.sf.net)
UComments: "2010-9-2: Created." 
Version: 001.000
ItalicAngle: 0
UnderlinePosition: -100
UnderlineWidth: 50
Ascent: 670
Descent: 330
LayerCount: 3
Layer: 0 0 "Back"  1
Layer: 1 0 "Fore"  0
Layer: 2 0 "backup"  0
NeedsXUIDChange: 1
XUID: [1021 658 797806517 16111641]
FSType: 0
OS2Version: 0
OS2_WeightWidthSlopeOnly: 0
OS2_UseTypoMetrics: 1
CreationTime: 1283410316
ModificationTime: 1285825040
OS2TypoAscent: 0
OS2TypoAOffset: 1
OS2TypoDescent: 0
OS2TypoDOffset: 1
OS2TypoLinegap: 90
OS2WinAscent: 0
OS2WinAOffset: 1
OS2WinDescent: 0
OS2WinDOffset: 1
HheadAscent: 0
HheadAOffset: 1
HheadDescent: 0
HheadDOffset: 1
OS2Vendor: 'PfEd'
MarkAttachClasses: 1
DEI: 91125
LangName: 1033 
Encoding: UnicodeBmp
UnicodeInterp: none
NameList: Adobe Glyph List
DisplaySize: -48
AntiAlias: 1
FitToEm: 1
WinInfo: 80 16 4
BeginPrivate: 9
BlueValues 22 [-9 2 388 388 665 665]
OtherBlues 11 [-235 -235]
BlueScale 8 0.039625
BlueShift 1 7
BlueFuzz 1 0
StdHW 4 [24]
StemSnapH 4 [24]
StdVW 4 [64]
StemSnapV 4 [64]
EndPrivate
BeginChars: 65536 53

StartChar: a
Encoding: 97 97 0
Width: 405
VWidth: 0
Flags: W
HStem: -7 45<102 200.175 300.5 366.835> 362 26<148.827 230.265>
VStem: 38 74<43.5685 125.031> 253 64<61.4818 185.998 207.001 348.15>
LayerCount: 3
Fore
SplineSet
376 37 m 0
 376 7 341 -7 317 -7 c 0
 284 -7 268 11 257 35 c 0
 249 52 253 47 239 38 c 0
 204 15 160 -9 118 -9 c 0
 86 -9 38 12 38 67 c 0
 38 157 156 185 234 207 c 0
 251 212 253 210 253 231 c 2
 253 272 l 2
 253 320 247 362 188 362 c 0
 160 362 139 345 127 326 c 0
 107 295 102 256 74 256 c 0
 60 256 49 270 49 284 c 0
 49 327 133 388 202 388 c 0
 282 388 317 360 317 291 c 2
 317 107 l 2
 317 68 317 38 340 38 c 0
 356 38 360 43 366 45 c 0
 371 47 376 42 376 37 c 0
160 37 m 0
 194 37 217 51 237 65 c 0
 251 75 253 78 253 89 c 2
 253 170 l 2
 253 183 252 186 248 186 c 0
 235 186 172 162 154 153 c 0
 135 143 112 118 112 91 c 0
 112 53 132 37 160 37 c 0
EndSplineSet
EndChar

StartChar: b
Encoding: 98 98 1
Width: 433
VWidth: 0
Flags: W
LayerCount: 3
Fore
SplineSet
115 337 m 1
 142 354 178 388 237 388 c 0
 357 388 405 293 405 196 c 0
 405 103 332 -8 226 -8 c 0
 162 -8 115 11 102 11 c 0
 87 11 71 -5 60 -5 c 0
 51 -5 50 4 50 12 c 2
 50 22 l 2
 50 46 51 92 51 108 c 2
 51 575 l 2
 51 594 30 601 14 606 c 0
 7 608 3 613 3 617 c 0
 3 621 6 626 14 629 c 2
 84 658 l 2
 93 662 100 665 105 665 c 0
 112 665 117 658 117 642 c 0
 117 594 115 633 115 367 c 2
 115 337 l 1
115 306 m 1
 115 106 l 2
 115 58 165 21 224 21 c 0
 282 21 330 83 330 179 c 0
 330 302 271 353 213 353 c 0
 155 353 115 306 115 306 c 1
EndSplineSet
EndChar

StartChar: c
Encoding: 99 99 3
Width: 373
VWidth: 0
Flags: W
LayerCount: 3
Fore
SplineSet
199 356 m 0
 123 356 97 266 97 202 c 0
 97 114 145 37 228 37 c 0
 289 37 324 85 330 85 c 0
 337 85 345 75 345 71 c 0
 345 50 282 -9 198 -9 c 0
 108 -9 32 49 32 176 c 0
 32 280 97 388 229 388 c 0
 276 388 335 368 335 339 c 0
 335 316 312 299 302 299 c 0
 279 299 241 356 199 356 c 0
EndSplineSet
EndChar

StartChar: d
Encoding: 100 100 4
Width: 475
VWidth: 0
Flags: W
LayerCount: 3
Fore
SplineSet
403 35 m 0
 412 35 423 39 430 39 c 0
 436 39 439 35 439 28 c 0
 439 14 438 14 424 11 c 2
 355 -5 l 2
 348 -7 343 -8 339 -8 c 0
 333 -8 331 -4 331 10 c 2
 331 30 l 2
 331 37 335 50 316 35 c 0
 296 19 255 -9 198 -9 c 0
 101 -9 22 72 22 175 c 0
 22 279 80 388 230 388 c 0
 263 388 296 372 314 361 c 0
 328 352 329 358 329 370 c 0
 329 480 329 454 328 575 c 0
 328 594 308 601 292 606 c 0
 285 608 281 613 281 617 c 0
 281 621 284 626 292 629 c 2
 362 658 l 2
 371 662 378 665 383 665 c 0
 390 665 395 658 395 642 c 0
 395 594 393 534 393 268 c 2
 393 58 l 2
 393 40 393 35 403 35 c 0
94 191 m 0
 94 123 133 24 216 24 c 0
 242 24 269 32 288 45 c 0
 327 72 329 86 329 106 c 2
 329 269 l 2
 329 331 263 364 221 364 c 0
 141 364 94 292 94 191 c 0
EndSplineSet
EndChar

StartChar: e
Encoding: 101 101 5
Width: 377
VWidth: 0
Flags: W
LayerCount: 3
Fore
SplineSet
206 -9 m 0
 95 -9 35 71 35 194 c 0
 35 308 94 388 215 388 c 0
 292 388 352 330 352 263 c 0
 352 256 350 253 335 253 c 2
 117 253 l 2
 106 253 101 253 99 240 c 0
 97 227 97 214 97 201 c 0
 97 130 131 35 227 35 c 0
 299 35 332 78 343 78 c 0
 347 78 352 68 352 65 c 0
 352 50 284 -9 206 -9 c 0
125 277 m 2
 271 277 l 2
 284 277 287 280 287 286 c 0
 287 290 287 295 285 301 c 0
 271 359 218 363 202 363 c 0
 162 363 130 332 115 296 c 0
 112 290 111 285 111 282 c 0
 111 278 114 277 125 277 c 2
EndSplineSet
EndChar

StartChar: f
Encoding: 102 102 6
Width: 298
VWidth: 0
Flags: W
LayerCount: 3
Fore
SplineSet
159 338 m 2
 159 136 l 2
 159 34 164 29 230 26 c 0
 240 26 244 23 244 12 c 0
 244 2 241 0 231 0 c 0
 184 0 159 2 127 2 c 0
 97 2 88 0 41 0 c 0
 31 0 26 2 26 12 c 0
 26 23 31 26 41 26 c 0
 95 27 95 47 95 136 c 2
 95 338 l 2
 95 357 95 358 79 358 c 2
 52 358 l 2
 38 358 35 358 35 371 c 0
 35 382 39 382 52 382 c 2
 74 382 l 2
 89 382 95 382 95 394 c 0
 95 438 99 556 162 616 c 0
 192 645 217 665 272 665 c 0
 306 665 341 650 341 616 c 0
 341 598 325 591 311 591 c 0
 278 591 265 630 232 630 c 0
 198 630 176 588 166 543 c 0
 160 515 159 486 159 456 c 2
 159 395 l 2
 159 386 161 382 177 382 c 2
 238 382 l 2
 250 382 252 382 252 371 c 0
 252 359 251 358 238 358 c 2
 177 358 l 2
 160 358 159 357 159 338 c 2
EndSplineSet
EndChar

StartChar: g
Encoding: 103 103 7
Width: 413
VWidth: 0
Flags: HW
HStem: -235 30<128.475 263.122> -42 64<123.847 304.71> 112 21<169.069 240.479> 332 43<339.431 400.974> 340 22<324.004 361.875> 364 24<158.307 236.872>
VStem: 15 68<-174.83 -92.4963> 63 56<31.2276 81.5039 176.641 334.862> 280 62<176.968 329.799> 333 53<-146.966 -66.3425>
LayerCount: 3
Fore
SplineSet
122 267 m 0xe480
 122 199 148 133 203 133 c 0
 259 133 280 182 280 244 c 0
 280 323 241 364 201 364 c 0
 156 364 122 335 122 267 c 0xe480
333 -97 m 0xe240
 333 -79 321 -64 279 -57 c 0
 240 -50 197 -46 164 -42 c 0
 152 -41 145 -42 137 -48 c 0
 115 -64 83 -88 83 -133 c 0
 83 -175 138 -205 196 -205 c 0
 269 -205 333 -158 333 -97 c 0xe240
165 113 m 0
 143 113 119 82 119 59 c 0xe980
 119 26 164 25 201 22 c 0
 252 18 307 22 344 4 c 0
 372 -9 386 -38 386 -71 c 0
 386 -165 302 -235 179 -235 c 0
 104 -235 15 -206 15 -144 c 0xea40
 15 -94 65 -67 110 -41 c 0
 121 -35 120 -34 107 -26 c 0
 90 -15 63 8 63 42 c 0
 63 69 96 93 116 106 c 0
 126 113 132 117 132 122 c 0
 132 126 128 129 122 134 c 0
 98 154 58 192 58 254 c 0
 58 330 115 388 200 388 c 0
 235 388 269 376 288 368 c 0
 299 363 303 362 309 362 c 0xed
 328 362 358 375 379 375 c 0
 392 375 401 369 401 352 c 0
 401 337 392 332 382 332 c 0xf1
 369 332 348 340 339 340 c 0
 330 340 324 336 324 331 c 0
 324 328 342 301 342 258 c 0xe980
 342 178 288 112 197 112 c 0
 182 112 172 113 165 113 c 0
EndSplineSet
EndChar

StartChar: h
Encoding: 104 104 8
Width: 477
VWidth: 0
Flags: WO
HStem: 0 26<33.0146 80.4318 167.568 214.985 280.015 327.432 414.568 461.985> 352 36<210.743 305.924> 645 20G<143.5 149.5>
VStem: 92 64<31.9099 327.13 342.004 600.421> 339 64<31.9099 322.83>
LayerCount: 3
Fore
SplineSet
286 388 m 0
 392 388 403 297 403 275 c 2
 403 136 l 2
 403 47 403 32 447 26 c 0
 457 25 462 23 462 12 c 0
 462 2 457 0 447 0 c 0
 400 0 401 2 371 2 c 0
 341 2 342 0 295 0 c 0
 285 0 280 2 280 12 c 0
 280 23 285 25 295 26 c 0
 339 32 339 47 339 136 c 2
 339 264 l 2
 339 304 313 352 255 352 c 0
 229 352 196 338 176 326 c 0
 158 315 156 306 156 290 c 2
 156 136 l 2
 156 47 156 32 200 26 c 0
 210 25 215 23 215 12 c 0
 215 2 210 0 200 0 c 0
 153 0 154 2 124 2 c 0
 94 2 95 0 48 0 c 0
 38 0 33 2 33 12 c 0
 33 23 38 25 48 26 c 0
 92 32 92 47 92 136 c 2
 92 268 l 2
 92 378 92 454 91 575 c 0
 91 594 71 601 55 606 c 0
 48 608 44 613 44 617 c 0
 44 621 47 626 55 629 c 2
 125 658 l 2
 134 662 141 665 146 665 c 0
 153 665 158 658 158 642 c 0
 158 602 156 543 156 360 c 0
 156 348 156 342 160 342 c 0
 163 342 168 345 176 350 c 0
 198 364 232 388 286 388 c 0
EndSplineSet
EndChar

StartChar: i
Encoding: 105 105 9
Width: 263
VWidth: 0
Flags: W
HStem: 0 26<33.0146 80.4318 167.568 214.985> 556 76<84.9378 154.255>
VStem: 81 77<560.155 627.845> 92 64<31.9099 321.961>
LayerCount: 3
Fore
SplineSet
124 2 m 0xd0
 94 2 95 0 48 0 c 0
 38 0 33 2 33 12 c 0
 33 23 38 25 48 26 c 0
 92 32 92 47 92 136 c 2
 92 275 l 2
 92 311 88 312 56 330 c 0
 50 333 49 335 49 338 c 0
 49 342 52 347 57 349 c 0
 80 359 108 374 129 389 c 0
 131 391 138 395 143 395 c 0
 147 395 157 394 157 377 c 0
 157 360 156 297 156 275 c 2
 156 136 l 2
 156 47 156 32 200 26 c 0
 210 25 215 23 215 12 c 0
 215 2 210 0 200 0 c 0
 153 0 154 2 124 2 c 0xd0
81 594 m 0xe0
 81 615 99 632 120 632 c 0
 141 632 158 615 158 594 c 0
 158 573 141 556 120 556 c 0
 99 556 81 573 81 594 c 0xe0
EndSplineSet
EndChar

StartChar: j
Encoding: 106 106 10
Width: 422
VWidth: 0
Flags: W
HStem: 152 68<202.33 265.67>
VStem: 200 68<154.33 217.67>
LayerCount: 3
Fore
SplineSet
200 186 m 0
 200 205 215 220 234 220 c 0
 253 220 268 205 268 186 c 0
 268 167 253 152 234 152 c 0
 215 152 200 167 200 186 c 0
EndSplineSet
Validated: 1
EndChar

StartChar: k
Encoding: 107 107 11
Width: 422
VWidth: 0
Flags: W
HStem: 152 68<202.33 265.67>
VStem: 200 68<154.33 217.67>
LayerCount: 3
Fore
SplineSet
200 186 m 0
 200 205 215 220 234 220 c 0
 253 220 268 205 268 186 c 0
 268 167 253 152 234 152 c 0
 215 152 200 167 200 186 c 0
EndSplineSet
Validated: 1
EndChar

StartChar: l
Encoding: 108 108 12
Width: 226
VWidth: 0
Flags: W
HStem: 0 26<24.0146 71.4318 158.568 205.985> 645 20G<134.5 140.5>
VStem: 83 64<31.9099 600.421>
LayerCount: 3
Fore
SplineSet
83 136 m 2
 83 268 l 2
 83 378 83 454 82 575 c 0
 82 594 62 601 46 606 c 0
 39 608 35 613 35 617 c 0
 35 621 38 626 46 629 c 2
 116 658 l 2
 125 662 132 665 137 665 c 0
 144 665 149 658 149 642 c 0
 149 594 147 534 147 268 c 2
 147 136 l 2
 147 47 147 32 191 26 c 0
 201 25 206 23 206 12 c 0
 206 2 201 0 191 0 c 0
 144 0 145 2 115 2 c 0
 85 2 86 0 39 0 c 0
 29 0 24 2 24 12 c 0
 24 23 29 25 39 26 c 0
 83 32 83 47 83 136 c 2
EndSplineSet
EndChar

StartChar: m
Encoding: 109 109 13
Width: 710
VWidth: 0
Flags: W
HStem: 0 26<21.0146 68.4318 155.568 202.985 268.015 315.432 402.568 449.985 515.015 562.432 649.568 696.985> 352 36<198.904 294.443 441.774 541.419>
VStem: 80 64<31.9099 321.294> 327 64<31.9099 326.171> 574 64<31.9099 322.83>
CounterMasks: 1 38
LayerCount: 3
Fore
SplineSet
638 275 m 2
 638 136 l 2
 638 47 638 32 682 26 c 0
 692 25 697 23 697 12 c 0
 697 2 692 0 682 0 c 0
 635 0 636 2 606 2 c 0
 576 2 577 0 530 0 c 0
 520 0 515 2 515 12 c 0
 515 23 520 25 530 26 c 0
 574 32 574 47 574 136 c 2
 574 264 l 2
 574 304 548 352 490 352 c 0
 458 352 390 328 390 302 c 0
 390 286 391 283 391 275 c 2
 391 136 l 2
 391 47 391 32 435 26 c 0
 445 25 450 23 450 12 c 0
 450 2 445 0 435 0 c 0
 388 0 389 2 359 2 c 0
 329 2 330 0 283 0 c 0
 273 0 268 2 268 12 c 0
 268 23 273 25 283 26 c 0
 327 32 327 47 327 136 c 2
 327 279 l 2
 327 315 290 352 242 352 c 0
 200 352 144 317 144 308 c 2
 144 136 l 2
 144 47 144 32 188 26 c 0
 198 25 203 23 203 12 c 0
 203 2 198 0 188 0 c 0
 141 0 142 2 112 2 c 0
 82 2 83 0 36 0 c 0
 26 0 21 2 21 12 c 0
 21 23 26 25 36 26 c 0
 80 32 80 47 80 136 c 2
 80 275 l 2
 80 311 76 312 44 330 c 0
 38 333 37 335 37 338 c 0
 37 342 40 347 45 349 c 0
 68 359 96 374 117 389 c 0
 119 391 126 395 131 395 c 0
 135 395 141 394 141 377 c 2
 141 350 l 2
 141 345 141 341 144 341 c 0
 161 341 198 388 273 388 c 0
 353 388 373 335 385 335 c 0
 390 335 440 388 522 388 c 0
 628 388 638 297 638 275 c 2
EndSplineSet
EndChar

StartChar: n
Encoding: 110 110 14
Width: 470
VWidth: 0
Flags: W
HStem: 0 26<21.0146 68.4318 155.568 202.985 268.015 315.432 402.568 449.985> 352 36<199.598 293.924>
VStem: 80 64<31.9099 321.294> 327 64<31.9099 322.83>
LayerCount: 3
Fore
SplineSet
274 388 m 0
 380 388 391 297 391 275 c 2
 391 136 l 2
 391 47 391 32 435 26 c 0
 445 25 450 23 450 12 c 0
 450 2 445 0 435 0 c 0
 388 0 389 2 359 2 c 0
 329 2 330 0 283 0 c 0
 273 0 268 2 268 12 c 0
 268 23 273 25 283 26 c 0
 327 32 327 47 327 136 c 2
 327 264 l 2
 327 304 301 352 243 352 c 0
 201 352 144 317 144 308 c 2
 144 136 l 2
 144 47 144 32 188 26 c 0
 198 25 203 23 203 12 c 0
 203 2 198 0 188 0 c 0
 141 0 142 2 112 2 c 4
 82 2 83 0 36 0 c 4
 26 0 21 2 21 12 c 4
 21 23 26 25 36 26 c 4
 80 32 80 47 80 136 c 6
 80 275 l 2
 80 311 76 312 44 330 c 0
 38 333 37 335 37 338 c 0
 37 342 40 347 45 349 c 0
 68 359 96 374 117 389 c 0
 119 391 126 395 131 395 c 0
 135 395 141 394 141 377 c 2
 141 350 l 2
 141 345 141 341 144 341 c 0
 161 341 199 388 274 388 c 0
EndSplineSet
EndChar

StartChar: o
Encoding: 111 111 15
Width: 440
VWidth: 0
Flags: W
HStem: -9 31<164.035 265.636> 362 26<166.818 261.508>
VStem: 24 75<89.3174 288> 332 75<94.2126 293.322>
LayerCount: 3
Fore
SplineSet
407 197 m 0
 407 73 334 -9 212 -9 c 0
 88 -9 24 79 24 185 c 0
 24 310 99 388 221 388 c 0
 352 388 407 303 407 197 c 0
214 362 m 0
 137 362 99 280 99 195 c 0
 99 103 139 22 215 22 c 0
 292 22 332 102 332 187 c 0
 332 282 290 362 214 362 c 0
EndSplineSet
EndChar

StartChar: p
Encoding: 112 112 16
Width: 422
VWidth: 0
Flags: W
HStem: 152 68<202.33 265.67>
VStem: 200 68<154.33 217.67>
LayerCount: 3
Fore
SplineSet
200 186 m 0
 200 205 215 220 234 220 c 0
 253 220 268 205 268 186 c 0
 268 167 253 152 234 152 c 0
 215 152 200 167 200 186 c 0
EndSplineSet
Validated: 1
EndChar

StartChar: q
Encoding: 113 113 17
Width: 422
VWidth: 0
Flags: W
HStem: 152 68<202.33 265.67>
VStem: 200 68<154.33 217.67>
LayerCount: 3
Fore
SplineSet
200 186 m 0
 200 205 215 220 234 220 c 0
 253 220 268 205 268 186 c 0
 268 167 253 152 234 152 c 0
 215 152 200 167 200 186 c 0
EndSplineSet
Validated: 1
EndChar

StartChar: r
Encoding: 114 114 18
Width: 326
VWidth: 0
Flags: W
HStem: 0 26<31.0146 78.4318 169.283 223.98> 319 69<213.904 300.72>
VStem: 90 64<34.6443 314.011>
LayerCount: 3
Fore
SplineSet
46 0 m 0
 36 0 31 2 31 12 c 0
 31 23 36 25 46 26 c 0
 90 32 90 47 90 136 c 2
 90 275 l 2
 90 311 88 319 58 330 c 0
 52 332 51 335 51 338 c 0
 51 342 54 347 59 349 c 0
 82 359 108 374 129 388 c 0
 131 390 138 394 143 394 c 0
 147 394 150 391 150 386 c 2
 150 340 l 2
 150 319 157 327 166 334 c 0
 199 358 238 388 276 388 c 0
 297 388 302 372 302 353 c 0
 302 331 292 319 267 319 c 0
 248 319 226 321 207 321 c 0
 164 321 154 296 154 268 c 2
 154 136 l 2
 154 34 160 34 210 26 c 0
 220 24 224 23 224 12 c 0
 224 2 221 0 211 0 c 0
 164 0 154 2 122 2 c 0
 92 2 93 0 46 0 c 0
EndSplineSet
EndChar

StartChar: s
Encoding: 115 115 19
Width: 422
VWidth: 0
Flags: W
LayerCount: 3
Fore
SplineSet
200 186 m 0
 200 205 215 220 234 220 c 0
 253 220 268 205 268 186 c 0
 268 167 253 152 234 152 c 0
 215 152 200 167 200 186 c 0
EndSplineSet
Validated: 1
EndChar

StartChar: t
Encoding: 116 116 20
Width: 422
VWidth: 0
Flags: W
HStem: 152 68<202.33 265.67>
VStem: 200 68<154.33 217.67>
LayerCount: 3
Fore
SplineSet
200 186 m 0
 200 205 215 220 234 220 c 0
 253 220 268 205 268 186 c 0
 268 167 253 152 234 152 c 0
 215 152 200 167 200 186 c 0
EndSplineSet
Validated: 1
EndChar

StartChar: u
Encoding: 117 117 21
Width: 422
VWidth: 0
Flags: W
HStem: 152 68<202.33 265.67>
VStem: 200 68<154.33 217.67>
LayerCount: 3
Fore
SplineSet
200 186 m 0
 200 205 215 220 234 220 c 0
 253 220 268 205 268 186 c 0
 268 167 253 152 234 152 c 0
 215 152 200 167 200 186 c 0
EndSplineSet
Validated: 1
EndChar

StartChar: v
Encoding: 118 118 22
Width: 422
VWidth: 0
Flags: W
HStem: 152 68<202.33 265.67>
VStem: 200 68<154.33 217.67>
LayerCount: 3
Fore
SplineSet
200 186 m 0
 200 205 215 220 234 220 c 0
 253 220 268 205 268 186 c 0
 268 167 253 152 234 152 c 0
 215 152 200 167 200 186 c 0
EndSplineSet
Validated: 1
EndChar

StartChar: w
Encoding: 119 119 23
Width: 422
VWidth: 0
Flags: W
HStem: 152 68<202.33 265.67>
VStem: 200 68<154.33 217.67>
LayerCount: 3
Fore
SplineSet
200 186 m 0
 200 205 215 220 234 220 c 0
 253 220 268 205 268 186 c 0
 268 167 253 152 234 152 c 0
 215 152 200 167 200 186 c 0
EndSplineSet
Validated: 1
EndChar

StartChar: x
Encoding: 120 120 24
Width: 422
VWidth: 0
Flags: W
HStem: 152 68<202.33 265.67>
VStem: 200 68<154.33 217.67>
LayerCount: 3
Fore
SplineSet
200 186 m 0
 200 205 215 220 234 220 c 0
 253 220 268 205 268 186 c 0
 268 167 253 152 234 152 c 0
 215 152 200 167 200 186 c 0
EndSplineSet
Validated: 1
EndChar

StartChar: y
Encoding: 121 121 25
Width: 422
VWidth: 0
Flags: W
HStem: 152 68<202.33 265.67>
VStem: 200 68<154.33 217.67>
LayerCount: 3
Fore
SplineSet
200 186 m 0
 200 205 215 220 234 220 c 0
 253 220 268 205 268 186 c 0
 268 167 253 152 234 152 c 0
 215 152 200 167 200 186 c 0
EndSplineSet
Validated: 1
EndChar

StartChar: z
Encoding: 122 122 26
Width: 422
VWidth: 0
Flags: W
HStem: 152 68<202.33 265.67>
VStem: 200 68<154.33 217.67>
LayerCount: 3
Fore
SplineSet
200 186 m 0
 200 205 215 220 234 220 c 0
 253 220 268 205 268 186 c 0
 268 167 253 152 234 152 c 0
 215 152 200 167 200 186 c 0
EndSplineSet
Validated: 1
EndChar

